# Blender 3.6.1
# www.blender.org
mtllib hydraleg.mtl
o Cube.002
v 0.439356 1.214439 -0.059636
v 0.492919 0.941866 -0.103292
v 0.467179 0.941648 -0.099052
v 0.505520 0.941018 -0.086266
v 0.457985 0.941276 -0.077212
v 0.485834 1.160577 -0.106579
v 0.469038 1.160704 -0.100027
v 0.470823 1.206763 -0.169159
v 0.451473 1.224996 -0.149223
v 0.447175 1.178794 -0.105643
v 0.464088 1.230840 -0.066234
v 0.483138 1.259639 -0.161155
v 0.484359 1.266618 -0.121001
v 0.455821 1.249714 -0.129948
v 0.509845 1.231738 -0.157292
v 0.508911 0.941801 -0.058900
v 0.509221 1.162064 -0.060237
v 0.502737 1.163586 -0.092134
v 0.504588 1.180525 -0.141099
v 0.526662 1.201577 -0.089614
v 0.512552 1.244757 -0.118109
v 0.509173 1.228351 -0.065118
v 0.462041 0.941316 -0.039284
v 0.456477 1.163342 -0.062853
v 0.483361 0.941380 -0.024969
v 0.482040 1.159736 -0.022480
v 0.450535 1.180433 -0.016554
v 0.454430 1.223767 0.023779
v 0.471137 1.178100 0.009853
v 0.494615 1.192892 0.030175
v 0.460230 1.254153 -0.012828
v 0.490981 1.265613 -0.006787
v 0.475691 1.251890 0.035878
v 0.499744 0.941311 -0.034380
v 0.520179 1.187504 -0.021932
v 0.509645 1.237220 0.022740
v 0.520863 1.228495 -0.021757
v 0.764843 -0.326386 0.881421
v 0.731917 -0.317382 0.882109
v 0.705692 -0.260958 0.824250
v 0.691562 -0.311242 0.723925
v 0.729515 -0.264324 0.751577
v 0.604827 -0.287430 0.659616
v 0.666829 -0.224054 0.713022
v 0.645172 -0.308534 0.565765
v 0.628614 -0.246998 0.535147
v 0.567706 -0.246074 0.607686
v 0.550979 -0.292328 0.649957
v 0.594314 -0.367381 0.430733
v 0.604609 -0.317566 0.432265
v 0.574726 -0.300786 0.399328
v 0.589389 -0.313234 0.214704
v 0.590937 -0.235208 0.240084
v 0.597418 -0.207354 0.187574
v 0.505618 -0.353094 1.059064
v 0.497217 -0.339193 1.110382
v 0.512307 -0.291061 0.853572
v 0.470311 -0.298538 0.835791
v 0.496195 -0.221177 0.839244
v 0.491905 -0.306036 0.796118
v 0.530927 -0.253805 0.653726
v 0.492669 -0.382297 0.489832
v 0.489864 -0.296176 0.489937
v 0.587401 -0.376655 0.265660
v 0.544970 -0.274540 0.306469
v 0.723477 0.782249 0.240735
v 0.771299 0.754799 0.111480
v 0.748747 0.606715 0.190384
v 0.767872 0.619213 0.024209
v 0.641793 0.827868 0.323594
v 0.679058 0.971110 0.155300
v 0.565929 0.195429 0.458310
v 0.604361 0.289299 0.406958
v 0.560440 0.394792 0.509859
v 0.683605 0.551255 0.359268
v 0.627330 0.592798 0.438232
v 0.540000 0.787047 0.404608
v 0.627594 0.331747 0.308933
v 0.590110 0.202523 0.297453
v 0.563332 0.228509 0.247556
v 0.586973 0.971111 0.252630
v 0.597604 -0.012374 0.268190
v 0.586152 -0.090405 0.116693
v 0.521097 0.301894 0.146602
v 0.590974 0.324251 0.179485
v 0.514892 0.217839 0.508675
v 0.510629 0.572327 0.501715
v 0.536396 -0.052432 0.351111
v 0.465313 -0.034819 0.370353
v 0.468513 0.971117 0.261981
v 0.485785 0.971139 0.125353
v 0.617287 -0.344670 0.094612
v 0.563782 -0.402393 0.073199
v 0.579662 -0.275395 0.124592
v 0.558501 -0.340544 0.040845
v 0.531721 -0.271607 0.053106
v 0.763295 0.700975 -0.161572
v 0.783167 0.799826 -0.066717
v 0.729165 0.971109 -0.050242
v 0.701256 0.971104 -0.234075
v 0.701767 0.681899 -0.293500
v 0.756973 0.863536 -0.164030
v 0.718757 0.843334 -0.288533
v 0.714624 0.553265 -0.089718
v 0.737301 0.971098 0.067349
v 0.640842 0.971132 0.024345
v 0.649230 0.971129 -0.070441
v 0.657575 0.546305 -0.199583
v 0.630651 0.971113 -0.278098
v 0.604710 0.662786 -0.383271
v 0.645470 0.830442 -0.388547
v 0.603302 0.971093 -0.386468
v 0.544508 0.049319 0.122950
v 0.573890 0.971132 0.144652
v 0.561165 0.527675 -0.257828
v 0.453043 0.971130 -0.207413
v 0.567045 0.768132 -0.437496
v 0.475860 -0.021937 0.063187
v 0.442534 0.489940 -0.209225
v 0.468948 0.715282 -0.442168
v 0.513792 0.854659 -0.444048
v 0.478752 -0.352984 1.075301
v 0.470074 -0.260932 0.948070
v 0.448707 -0.302015 0.686307
v 0.445697 -0.255570 0.603657
v 0.449994 -0.254503 0.703836
v 0.411262 -0.276760 0.636991
v 0.352035 -0.235833 0.558313
v 0.458809 -0.282510 0.325353
v 0.421653 -0.284140 0.291904
v 0.420040 -0.329373 0.572314
v 0.289228 -0.307346 0.696560
v 0.413342 -0.383273 0.422071
v 0.398653 -0.383834 0.254682
v 0.380894 -0.303199 0.431285
v 0.382182 -0.331058 0.255906
v 0.371048 -0.325487 0.083528
v 0.398889 -0.288366 0.232551
v 0.388142 -0.248547 0.642689
v 0.325904 -0.224591 0.718133
v 0.346774 -0.314561 0.547164
v 0.242772 -0.258292 0.759480
v 0.259762 -0.309098 0.858993
v 0.223310 -0.322739 0.889770
v 0.474264 0.408348 0.530247
v 0.400006 0.509094 0.491499
v 0.442591 0.229885 0.503615
v 0.392959 0.274802 0.467074
v 0.441016 0.693928 0.452236
v 0.415362 -0.066062 0.322555
v 0.407847 0.881240 0.332236
v 0.331668 0.791559 0.342930
v 0.381877 0.222741 0.321863
v 0.362841 0.296994 0.325731
v 0.381765 -0.008714 0.255995
v 0.345622 0.370488 0.181091
v 0.362042 0.971126 0.151802
v 0.288928 0.544348 0.353315
v 0.225670 0.597502 0.147000
v 0.256630 0.768266 0.249140
v 0.226507 0.587945 -0.020688
v 0.290666 0.971097 0.195520
v 0.215762 0.727017 0.156821
v 0.388554 -0.393506 0.079054
v 0.459794 -0.360892 0.030582
v 0.511226 -0.148476 0.027484
v 0.413840 -0.273115 0.079091
v 0.415201 -0.100076 0.070584
v 0.384021 -0.143920 0.126799
v 0.496737 0.219734 0.215692
v 0.431465 0.224408 0.236593
v 0.374687 0.971135 0.018508
v 0.321717 0.971126 -0.115845
v 0.457753 0.609083 -0.375718
v 0.412031 0.857136 -0.429396
v 0.487943 0.971106 -0.374449
v 0.417082 0.336175 0.123852
v 0.288105 0.544667 -0.141333
v 0.308833 0.616572 -0.280038
v 0.363165 0.685761 -0.383919
v 0.339764 0.971097 -0.346729
v 0.298244 0.971121 0.066731
v 0.242650 0.971103 -0.131565
v 0.286547 0.971108 -0.225377
v 0.279400 0.760471 -0.325773
v 0.333404 0.811866 -0.392399
v 0.227674 0.971095 0.029852
v 0.192035 0.784534 -0.050342
v 0.234988 0.678908 -0.196086
v 0.236522 0.822908 -0.248853
vn 0.3049 -0.7530 -0.5831
vn -0.5441 -0.6806 -0.4907
vn 0.0905 -0.5756 -0.8127
vn 0.7962 -0.5460 -0.2608
vn -0.8839 -0.4554 -0.1060
vn -0.6959 -0.4220 -0.5810
vn -0.9012 -0.4299 0.0553
vn -0.9278 0.0969 -0.3602
vn -0.3969 -0.4145 -0.8190
vn -0.8812 -0.4285 -0.1997
vn 0.6383 -0.6059 -0.4748
vn -0.7810 0.6193 -0.0809
vn 0.0319 0.8311 -0.5552
vn 0.0694 0.9904 0.1193
vn -0.4017 0.9157 -0.0073
vn -0.9887 0.1483 0.0223
vn 0.8330 -0.4432 -0.3313
vn 0.9312 -0.3545 0.0844
vn 0.8643 0.2020 -0.4605
vn 0.8154 0.5779 -0.0327
vn -0.0125 0.9973 0.0721
vn -0.7750 -0.5480 0.3147
vn 0.0130 -0.6850 0.7285
vn -0.0251 -0.8095 0.5866
vn -0.8679 -0.4366 0.2367
vn -0.4210 -0.7146 0.5587
vn -0.9005 0.0819 0.4272
vn -0.7000 0.7138 -0.0213
vn 0.2985 0.9541 -0.0256
vn -0.3122 0.6893 0.6538
vn 0.6165 -0.6622 0.4259
vn 0.9005 -0.4263 0.0855
vn 0.9163 -0.3398 0.2117
vn 0.9914 -0.0948 -0.0903
vn 0.4474 -0.5346 0.7169
vn 0.9440 0.3192 0.0836
vn 0.8538 0.3263 0.4057
vn -0.2172 -0.7462 -0.6293
vn -0.4841 -0.8670 -0.1185
vn 0.2899 0.9564 -0.0368
vn 0.2631 0.9643 -0.0297
vn 0.8550 -0.1200 -0.5045
vn -0.9069 -0.0351 0.4200
vn -0.6222 -0.7482 0.2302
vn 0.6081 -0.6652 -0.4332
vn 0.1874 -0.6987 -0.6904
vn -0.2405 0.9197 -0.3102
vn -0.9435 0.1866 0.2740
vn -0.7664 -0.4321 0.4752
vn -0.9935 0.0884 0.0713
vn -0.6587 -0.7524 -0.0016
vn -0.8550 0.1757 -0.4879
vn -0.2782 0.9220 0.2693
vn -0.2545 -0.8871 -0.3851
vn 0.0285 0.9822 0.1858
vn 0.3726 -0.9168 0.1437
vn -0.3390 0.8675 -0.3640
vn 0.2582 -0.9386 0.2287
vn 0.2411 -0.9313 0.2732
vn 0.0274 -0.9596 -0.2800
vn -0.9398 -0.0379 -0.3397
vn -0.9295 -0.0283 -0.3678
vn -0.8382 -0.1274 -0.5303
vn -0.7548 -0.2494 -0.6067
vn -0.9243 0.3735 -0.0783
vn -0.7996 0.0537 -0.5981
vn -0.4058 -0.3300 -0.8523
vn -0.8309 0.3013 -0.4678
vn -0.9529 0.2855 -0.1022
vn -0.9831 -0.0580 0.1739
vn -0.8204 0.1901 0.5393
vn -0.3915 -0.5244 -0.7561
vn -0.9941 0.0424 -0.1002
vn -0.8433 0.0920 -0.5294
vn -0.9947 -0.0383 0.0949
vn -0.8816 0.4148 0.2254
vn -0.2203 0.0632 -0.9734
vn -0.5573 0.3847 -0.7359
vn -0.4486 -0.1661 -0.8782
vn -0.2456 -0.1131 -0.9628
vn -0.0584 -0.4047 -0.9126
vn -0.0614 -0.6261 -0.7773
vn -0.8204 0.0821 -0.5659
vn -0.3940 0.6572 0.6425
vn -0.0001 -1.0000 -0.0002
vn -0.8911 -0.4448 -0.0906
vn -0.9697 0.2440 0.0098
vn -0.6972 -0.5680 0.4375
vn -0.0302 0.9912 -0.1288
vn -0.1826 0.4434 0.8775
vn -0.0610 -0.1977 0.9784
vn -0.9898 0.0938 -0.1069
vn -0.9310 -0.2076 -0.3003
vn -0.7615 -0.4072 -0.5042
vn -0.9782 -0.1761 -0.1097
vn -0.9892 0.1234 0.0787
vn -0.9507 -0.3051 0.0561
vn -0.9540 -0.0326 0.2981
vn -0.9099 -0.2618 0.3218
vn -0.8515 0.5147 0.1001
vn -0.7619 0.6223 0.1795
vn -0.0003 -1.0000 -0.0001
vn -0.7763 0.5098 0.3708
vn -0.7339 -0.3489 0.5828
vn -0.8141 -0.2518 0.5233
vn -0.8089 0.0672 0.5841
vn -0.8451 -0.2725 0.4600
vn -0.0002 -1.0000 -0.0002
vn -0.8281 0.0529 0.5581
vn -0.4047 0.8183 0.4082
vn -0.0000 -1.0000 -0.0000
vn -0.4721 0.6767 0.5650
vn -0.6173 0.1742 0.7672
vn -0.4058 -0.1350 0.9039
vn -0.6661 -0.2303 0.7094
vn -0.1369 -0.5558 0.8200
vn -0.7675 0.0056 0.6410
vn -0.4453 0.7999 0.4024
vn -0.0211 0.8140 0.5805
vn -0.4104 -0.1850 0.8930
vn -0.0662 0.0348 0.9972
vn 0.0899 -0.4962 0.8636
vn -0.1673 0.9444 -0.2832
vn 0.1340 0.9673 0.2152
vn 0.8765 -0.3596 -0.3200
vn 0.9976 0.0663 -0.0201
vn -0.1068 0.9648 -0.2405
vn -0.0733 -0.9845 0.1594
vn -0.1460 -0.9483 0.2819
vn -0.3001 -0.9293 0.2153
vn 0.1199 -0.9873 -0.1046
vn 0.1304 -0.9867 -0.0968
vn -0.5599 -0.3031 -0.7711
vn 0.2957 0.8949 -0.3342
vn 0.6597 0.7491 -0.0604
vn 0.9167 -0.3205 0.2385
vn 0.9535 0.2985 -0.0404
vn -0.7802 -0.3022 -0.5477
vn -0.1766 -0.8053 -0.5660
vn -0.2598 0.9650 -0.0367
vn 0.4284 -0.8937 0.1329
vn 0.8562 0.4134 0.3098
vn 0.8218 -0.4045 0.4012
vn -0.3951 0.9165 -0.0618
vn 0.1540 -0.8946 -0.4195
vn 0.8586 0.3968 0.3245
vn 0.0909 0.1312 -0.9872
vn 0.2096 -0.2126 -0.9544
vn 0.1373 0.4548 -0.8799
vn 0.7403 0.3519 -0.5728
vn 0.5157 0.3630 -0.7761
vn 0.5037 0.0394 -0.8630
vn 0.2302 -0.2508 -0.9403
vn -0.2152 0.1800 -0.9598
vn 0.6462 0.1200 -0.7537
vn 0.6610 0.1231 -0.7402
vn 0.6275 0.0620 -0.7761
vn 0.9326 0.1911 -0.3061
vn 0.9536 0.2530 -0.1635
vn 0.9966 0.0653 -0.0509
vn 0.8308 -0.2860 0.4775
vn -0.2354 -0.8925 -0.3849
vn 0.4754 -0.4909 -0.7301
vn 0.9306 0.3013 -0.2077
vn 0.7898 -0.1614 -0.5918
vn 0.9210 -0.0471 -0.3867
vn 0.0486 0.9971 -0.0577
vn 0.0604 0.7848 0.6168
vn 0.2030 -0.3901 0.8981
vn 0.2065 0.2322 0.9505
vn 0.9650 0.2529 -0.0694
vn 0.9765 0.1835 0.1134
vn 0.9148 -0.3974 -0.0719
vn 0.5899 -0.3910 0.7065
vn 0.4263 0.0411 0.9036
vn 0.0001 -1.0000 -0.0000
vn 0.1417 -0.0322 0.9894
vn 0.1124 -0.4913 0.8637
vn 0.5960 0.7461 0.2968
vn 0.0001 -1.0000 -0.0001
vn 0.4576 0.7935 0.4013
vn 0.0001 -1.0000 0.0001
vn 0.3953 0.7295 0.5582
vn 0.3172 0.4788 0.8186
vn 0.3896 0.0737 0.9180
vn 0.5275 -0.2536 0.8108
vn 0.0003 -1.0000 -0.0002
vn 0.0005 -1.0000 -0.0002
vn 0.7802 0.5979 0.1838
vn 0.0002 -1.0000 -0.0000
vn 0.0003 -1.0000 -0.0000
vn 0.8165 0.3198 0.4807
vn 0.8171 -0.1306 0.5615
vn 0.8064 -0.1926 0.5591
vn 0.6757 0.2070 0.7075
vn 0.9066 -0.2433 -0.3447
vn 0.9253 -0.2095 -0.3160
vn 0.9851 0.1720 -0.0049
vn 0.9924 0.0828 -0.0907
vn 0.9813 -0.1243 -0.1469
vn 0.8510 0.4483 0.2737
vn 0.9703 0.1923 0.1466
vn 0.0004 -1.0000 -0.0000
vn 0.9662 -0.1833 0.1811
vn 0.9081 0.1355 0.3962
vn 0.8581 -0.3493 0.3763
vn -0.6476 -0.7409 -0.1780
vn -0.8111 0.4104 0.4168
vn -0.8195 0.5161 0.2492
vn -0.1707 -0.9825 -0.0750
vn -0.9491 -0.1083 0.2957
vn 0.8427 0.0900 -0.5308
vn -0.0269 0.9441 -0.3285
vn 0.1090 -0.9886 0.1041
vn -0.9791 0.2014 0.0297
vn -0.5046 -0.8631 0.0181
vn -0.9700 -0.2221 -0.0986
vn -0.0774 0.9711 -0.2257
vn -0.9470 -0.2959 -0.1252
vn -0.6376 0.7472 -0.1876
vn -0.8814 -0.4427 -0.1647
vn -0.4214 0.9028 -0.0857
vn -0.7162 -0.3117 -0.6245
vn -0.1723 0.9839 -0.0481
vn -0.0385 0.9992 0.0089
vn -0.9310 0.2300 -0.2836
vn -0.6178 -0.5260 -0.5845
vn -0.8258 0.1197 -0.5510
vn -0.4895 -0.3577 -0.7953
vn -0.9177 0.1828 -0.3527
vn -0.9220 0.3836 -0.0524
vn -0.9334 0.2326 -0.2734
vn -0.9938 -0.0483 0.1000
vn -0.4902 0.5946 0.6373
vn -0.1111 0.4939 -0.8624
vn -0.6523 0.1729 -0.7380
vn -0.9027 -0.1777 0.3919
vn -0.0000 -1.0000 -0.0002
vn -0.9731 -0.1249 -0.1934
vn -0.7332 0.6800 -0.0010
vn -0.9947 -0.0134 0.1018
vn -0.6276 0.3181 0.7106
vn -0.6413 -0.3688 0.6729
vn -0.9970 0.0584 -0.0516
vn -0.9498 -0.3058 0.0657
vn -0.8997 0.3909 0.1942
vn -0.9134 -0.3828 0.1387
vn -0.8382 0.4357 0.3279
vn -0.9705 -0.0341 0.2389
vn -0.9077 0.0829 0.4113
vn -0.7522 -0.4102 -0.5157
vn -0.0002 -1.0000 -0.0001
vn -0.0002 -1.0000 -0.0000
vn -0.0003 -1.0000 0.0001
vn -0.0002 -1.0000 0.0001
vn -0.6137 0.5749 0.5412
vn -0.0003 -1.0000 0.0003
vn -0.6866 0.1890 0.7021
vn -0.9729 0.0438 0.2269
vn -0.6523 0.6984 0.2945
vn -0.0001 -1.0000 0.0001
vn -0.0000 -1.0000 0.0001
vn -0.0001 -1.0000 -0.0000
vn -0.3831 -0.3484 0.8555
vn -0.0814 0.8737 0.4797
vn -0.2213 0.7009 0.6781
vn -0.1531 0.5357 0.8304
vn -0.2438 0.3735 0.8950
vn -0.0001 -1.0000 0.0002
vn 0.7226 -0.6869 -0.0775
vn 0.9712 0.2267 -0.0739
vn 0.6195 -0.7848 -0.0182
vn 0.9893 0.0262 -0.1436
vn 0.8253 0.1756 -0.5367
vn 0.5149 -0.8571 -0.0130
vn 0.7840 0.5293 -0.3242
vn 0.7177 0.6859 -0.1197
vn 0.3194 0.9001 -0.2963
vn -0.1180 -0.9912 -0.0600
vn -0.1744 -0.8858 0.4301
vn -0.0102 0.9999 -0.0025
vn -0.2266 0.1835 -0.9565
vn -0.4569 0.6587 -0.5978
vn 0.2755 0.9009 -0.3355
vn 0.7150 -0.6896 0.1148
vn 0.8299 -0.4802 -0.2841
vn -0.6993 -0.4630 -0.5446
vn 0.1896 0.9815 0.0256
vn 0.8421 0.4532 0.2924
vn 0.0881 -0.5262 -0.8458
vn -0.0051 -0.6137 -0.7895
vn 0.7838 0.0410 -0.6196
vn 0.5364 -0.2876 -0.7935
vn 0.9961 0.0236 -0.0845
vn 0.4065 -0.4407 -0.8003
vn 0.9290 0.0777 -0.3618
vn 0.9178 0.0886 -0.3869
vn 0.9136 -0.1868 0.3611
vn 0.9996 -0.0078 0.0256
vn 0.8469 0.1913 0.4962
vn 0.8161 0.5486 0.1816
vn 0.5012 -0.7170 -0.4844
vn 0.9419 0.2986 -0.1538
vn 0.7499 -0.1566 -0.6428
vn 0.9137 0.4060 -0.0186
vn 0.7825 -0.2785 -0.5569
vn 0.4141 -0.2645 0.8710
vn 0.5346 0.0823 0.8411
vn 0.9530 0.2986 -0.0519
vn 0.7748 -0.6320 0.0127
vn 0.8685 0.0175 0.4954
vn -0.3248 -0.4845 0.8123
vn 0.2229 -0.5339 0.8156
vn 0.2881 0.5649 0.7733
vn 0.0827 0.7130 0.6963
vn 0.3313 -0.1693 0.9282
vn 0.1988 0.8839 0.4233
vn 0.6621 0.5727 0.4833
vn 0.0001 -1.0000 -0.0002
vn 0.4695 0.7533 0.4607
vn 0.4462 0.6194 0.6459
vn 0.4405 0.1633 0.8828
vn 0.0001 -1.0000 0.0002
vn 0.1580 -0.5122 0.8442
vn 0.7505 0.6210 0.2262
vn 0.0003 -1.0000 0.0001
vn 0.7216 0.3394 0.6034
vn 0.9584 0.0938 -0.2697
vn 0.9704 -0.2241 0.0900
vn 0.8065 0.4670 0.3626
vn 0.9699 0.0746 0.2318
vn 0.8487 -0.3494 0.3971
vn 0.3164 0.9455 -0.0766
vn -0.3500 -0.9367 0.0087
s 1
usemtl Material.029
f 2//1 3//2 6//3
f 4//4 3//2 2//1
f 5//5 3//2 4//4
f 6//3 3//2 7//6
f 3//2 5//5 24//7
f 9//8 8//9 10//10
f 7//6 10//10 19//11
f 9//8 14//12 12//13
f 13//14 12//13 14//12
f 11//15 14//12 1//16
f 4//4 2//1 18//17
f 6//3 7//6 19//11
f 4//4 18//17 17//18
f 19//11 8//9 15//19
f 12//13 13//14 21//20
f 22//21 13//14 11//15
f 5//5 23//22 24//7
f 26//23 23//22 25//24
f 24//7 23//22 26//23
f 27//25 10//10 24//7
f 29//26 27//25 26//23
f 1//16 27//25 28//27
f 11//15 1//16 31//28
f 32//29 11//15 31//28
f 31//28 1//16 28//27
f 31//28 33//30 32//29
f 25//24 23//22 34//31
f 17//18 34//31 16//32
f 17//18 26//23 34//31
f 35//33 17//18 20//34
f 30//35 26//23 17//18
f 22//21 11//15 32//29
f 32//29 37//36 22//21
f 36//37 37//36 32//29
f 1//16 9//8 10//10
f 7//6 3//2 24//7
f 7//6 24//7 10//10
f 19//11 10//10 8//9
f 14//12 9//8 1//16
f 8//9 9//8 12//13
f 11//15 13//14 14//12
f 17//18 16//32 4//4
f 19//11 18//17 6//3
f 18//17 2//1 6//3
f 15//19 20//34 19//11
f 5//5 4//4 34//31 23//22
f 17//18 18//17 19//11
f 20//34 17//18 19//11
f 15//19 8//9 12//13
f 15//19 12//13 21//20
f 15//19 21//20 20//34
f 22//21 21//20 13//14
f 1//16 10//10 27//25
f 27//25 24//7 26//23
f 29//26 28//27 27//25
f 29//26 30//35 28//27
f 30//35 33//30 28//27
f 33//30 31//28 28//27
f 16//32 34//31 4//4
f 34//31 26//23 25//24
f 21//20 22//21 37//36
f 35//33 30//35 17//18
f 26//23 30//35 29//26
f 37//36 36//37 35//33
f 36//37 30//35 35//33
f 21//20 37//36 20//34
f 20//34 37//36 35//33
f 36//37 33//30 30//35
f 33//30 36//37 32//29
s 0
usemtl Material.030
f 38//38 39//38 40//38
f 42//39 40//39 44//39
f 39//40 41//40 43//40
f 38//41 41//41 39//41
f 40//42 39//42 43//42
f 45//43 42//43 46//43
f 42//44 44//44 46//44
f 44//45 40//45 47//45
f 47//46 43//46 48//46
f 49//47 43//47 45//47
f 50//48 49//48 45//48
f 46//49 51//49 50//49
f 52//50 64//50 50//50
f 52//51 51//51 65//51
f 52//52 65//52 53//52
f 58//53 55//53 57//53
f 56//54 123//54 59//54
f 61//55 57//55 56//55
f 47//56 61//56 63//56
f 62//57 48//57 49//57
f 46//58 47//58 63//58
f 46//59 63//59 51//59
f 65//60 51//60 129//60
f 68//61 66//61 67//61
f 75//62 66//62 68//62
f 66//63 75//63 76//63
f 66//64 76//64 70//64
f 78//65 68//65 69//65
f 76//66 75//66 74//66
f 77//67 76//67 87//67
f 82//68 88//68 72//68
f 79//69 73//69 78//69
f 79//70 82//70 73//70
f 80//71 79//71 78//71
f 70//72 77//72 81//72
f 54//73 53//73 82//73
f 53//74 65//74 82//74
f 83//75 54//75 82//75
f 80//76 78//76 85//76
f 74//77 86//77 145//77
f 72//78 88//78 86//78
f 76//79 74//79 87//79
f 74//80 145//80 87//80
f 77//81 87//81 149//81
f 81//82 77//82 90//82
f 65//83 88//83 82//83
f 170//84 80//84 84//84
f 94//86 92//86 52//86
f 94//87 53//87 54//87
f 92//88 94//88 96//88
f 93//89 134//89 64//89
f 165//90 93//90 95//90
f 96//91 165//91 95//91
f 69//92 68//92 67//92
f 67//93 66//93 105//93
f 105//94 66//94 71//94
f 98//95 67//95 105//95
f 98//96 97//96 69//96
f 102//97 98//97 99//97
f 103//98 97//98 102//98
f 103//99 102//99 100//99
f 104//100 78//100 69//100
f 85//101 78//101 104//101
f 108//103 104//103 101//103
f 100//104 111//104 103//104
f 111//105 100//105 112//105
f 111//106 101//106 103//106
f 113//107 83//107 79//107
f 96//109 94//109 83//109
f 108//110 115//110 85//110
f 115//112 108//112 110//112
f 117//113 110//113 111//113
f 112//114 121//114 111//114
f 113//115 166//115 83//115
f 80//116 118//116 113//116
f 83//117 166//117 96//117
f 115//118 84//118 85//118
f 115//119 174//119 119//119
f 111//120 121//120 117//120
f 121//121 120//121 117//121
f 112//122 176//122 121//122
f 55//123 122//123 56//123
f 122//124 55//124 58//124
f 123//125 56//125 122//125
f 58//126 123//126 122//126
f 62//127 58//127 60//127
f 61//128 59//128 125//128
f 61//129 125//129 63//129
f 125//130 128//130 63//130
f 129//131 63//131 135//131
f 130//132 129//132 135//132
f 125//133 127//133 139//133
f 131//134 133//134 141//134
f 141//135 133//135 134//135
f 135//136 141//136 134//136
f 136//137 135//137 134//137
f 143//138 140//138 139//138
f 140//139 143//139 144//139
f 132//140 143//140 127//140
f 128//141 140//141 142//141
f 142//142 132//142 141//142
f 142//143 135//143 128//143
f 144//144 143//144 132//144
f 140//145 144//145 142//145
f 142//146 144//146 132//146
f 86//147 147//147 145//147
f 87//148 145//148 146//148
f 147//149 86//149 89//149
f 148//150 147//150 89//150
f 89//151 150//151 148//151
f 146//152 145//152 147//152
f 149//153 87//153 146//153
f 89//154 88//154 129//154
f 129//155 150//155 89//155
f 129//156 130//156 150//156
f 146//157 147//157 148//157
f 148//158 150//158 155//158
f 154//159 148//159 153//159
f 169//160 155//160 138//160
f 168//161 171//161 153//161
f 157//162 151//162 162//162
f 151//163 152//163 162//163
f 159//164 158//164 154//164
f 160//165 152//165 158//165
f 160//166 158//166 163//166
f 164//167 134//167 93//167
f 165//168 164//168 93//168
f 96//169 167//169 165//169
f 166//170 167//170 96//170
f 164//171 137//171 134//171
f 169//172 138//172 167//172
f 137//173 138//173 136//173
f 168//174 118//174 171//174
f 168//175 167//175 166//175
f 121//177 175//177 120//177
f 121//178 176//178 175//178
f 156//179 177//179 178//179
f 178//181 177//181 119//181
f 179//183 119//183 174//183
f 120//184 180//184 174//184
f 186//185 120//185 175//185
f 186//186 175//186 181//186
f 161//189 156//189 178//189
f 179//192 185//192 189//192
f 190//193 185//193 186//193
f 181//194 190//194 186//194
f 180//195 186//195 185//195
f 187//196 162//196 160//196
f 187//197 160//197 163//197
f 188//198 159//198 161//198
f 188//199 163//199 159//199
f 188//200 187//200 163//200
f 189//201 161//201 178//201
f 188//202 161//202 189//202
f 190//204 183//204 188//204
f 185//205 190//205 189//205
f 184//206 190//206 181//206
f 40//207 42//207 38//207
f 42//208 41//208 38//208
f 45//209 41//209 42//209
f 139//210 128//210 125//210
f 46//211 50//211 45//211
f 43//212 47//212 40//212
f 49//213 48//213 43//213
f 46//214 44//214 47//214
f 50//215 64//215 49//215
f 52//216 50//216 51//216
f 57//217 55//217 56//217
f 60//218 58//218 57//218
f 59//219 61//219 56//219
f 62//220 60//220 48//220
f 61//221 48//221 57//221
f 60//222 57//222 48//222
f 47//223 48//223 61//223
f 64//224 62//224 49//224
f 64//225 134//225 62//225
f 68//226 73//226 75//226
f 81//227 71//227 70//227
f 75//228 72//228 74//228
f 77//229 70//229 76//229
f 73//230 82//230 72//230
f 78//231 73//231 68//231
f 75//232 73//232 72//232
f 83//233 82//233 79//233
f 84//234 80//234 85//234
f 89//235 86//235 88//235
f 86//236 74//236 72//236
f 79//237 80//237 113//237
f 92//239 64//239 52//239
f 64//240 92//240 93//240
f 94//241 52//241 53//241
f 95//242 93//242 92//242
f 92//243 96//243 95//243
f 98//244 69//244 67//244
f 99//245 98//245 105//245
f 104//246 69//246 97//246
f 99//247 100//247 102//247
f 97//248 101//248 104//248
f 102//249 97//249 98//249
f 97//250 103//250 101//250
f 66//251 70//251 71//251
f 101//256 110//256 108//256
f 111//258 110//258 101//258
f 83//259 94//259 54//259
f 104//260 108//260 85//260
f 113//264 118//264 166//264
f 115//265 119//265 84//265
f 174//266 115//266 110//266
f 120//267 174//267 110//267
f 110//268 117//268 120//268
f 126//270 59//270 123//270
f 58//271 126//271 123//271
f 125//272 59//272 126//272
f 126//273 58//273 124//273
f 124//274 127//274 126//274
f 125//275 126//275 127//275
f 131//276 127//276 124//276
f 62//277 124//277 58//277
f 62//278 131//278 124//278
f 129//279 51//279 63//279
f 135//280 63//280 128//280
f 134//281 133//281 62//281
f 88//282 65//282 129//282
f 131//283 132//283 127//283
f 62//284 133//284 131//284
f 136//285 130//285 135//285
f 138//286 130//286 136//286
f 139//287 127//287 143//287
f 141//288 132//288 131//288
f 135//289 142//289 141//289
f 151//290 77//290 149//290
f 151//291 90//291 77//291
f 148//292 158//292 146//292
f 152//293 149//293 146//293
f 155//294 153//294 148//294
f 151//295 149//295 152//295
f 150//296 130//296 138//296
f 138//297 155//297 150//297
f 168//298 153//298 169//298
f 169//299 153//299 155//299
f 153//300 171//300 154//300
f 171//301 156//301 154//301
f 157//302 90//302 151//302
f 154//303 158//303 148//303
f 152//304 146//304 158//304
f 154//305 161//305 159//305
f 160//306 162//306 152//306
f 167//307 137//307 165//307
f 137//308 164//308 165//308
f 137//309 136//309 134//309
f 137//310 167//310 138//310
f 167//311 168//311 169//311
f 80//312 170//312 118//312
f 171//313 118//313 170//313
f 84//314 171//314 170//314
f 177//315 171//315 84//315
f 118//316 168//316 166//316
f 119//317 177//317 84//317
f 177//318 156//318 171//318
f 179//320 178//320 119//320
f 180//321 179//321 174//321
f 120//322 186//322 180//322
f 175//324 176//324 181//324
f 156//325 161//325 154//325
f 180//327 185//327 179//327
f 159//328 163//328 158//328
f 183//329 187//329 188//329
f 179//330 189//330 178//330
f 189//331 190//331 188//331
f 190//332 184//332 183//332
f 43//333 41//333 45//333
f 139//334 140//334 128//334
usemtl Material.031
f 91//85 81//85 90//85
f 106//102 105//102 71//102
f 71//108 81//108 114//108
f 107//111 106//111 116//111
f 116//111 106//111 91//111
f 116//111 91//111 172//111
f 116//176 172//176 173//176
f 172//180 157//180 182//180
f 116//182 173//182 184//182
f 157//187 162//187 182//187
f 182//188 162//188 187//188
f 173//190 172//190 182//190
f 173//191 182//191 183//191
f 183//203 182//203 187//203
f 91//238 114//238 81//238
f 106//252 71//252 114//252
f 99//102 105//102 106//102
f 107//253 99//253 106//253
f 107//254 100//254 99//254
f 109//255 100//255 107//255
f 112//257 100//257 109//257
f 109//261 107//261 116//261
f 109//262 116//262 176//262
f 91//263 106//263 114//263
f 112//269 109//269 176//269
f 184//182 181//182 116//182
f 91//319 90//319 157//319
f 181//323 176//323 116//323
f 183//326 184//326 173//326
f 91//180 157//180 172//180
